<svg width="17" height="14" viewBox="0 0 17 14" fill="none" xmlns="http://www.w3.org/2000/svg">
<path d="M16.5927 1.54632C15.9712 1.82122 15.3152 1.99303 14.6247 2.09612C15.3152 1.68377 15.8677 1.03088 16.1094 0.240539C15.4533 0.618527 14.7283 0.893428 13.9341 1.06524C13.3126 0.412352 12.4149 0 11.4481 0C9.58366 0 8.06445 1.51196 8.06445 3.36754C8.06445 3.64244 8.09897 3.88298 8.16803 4.12352C5.3713 3.98606 2.85079 2.64592 1.15894 0.584165C0.882719 1.0996 0.710082 1.64941 0.710082 2.26793C0.710082 3.43626 1.29705 4.46714 2.22929 5.08567C1.67685 5.05131 1.15894 4.91386 0.675554 4.67332V4.70768C0.675554 6.35709 1.84949 7.73159 3.40323 8.04086C3.12701 8.10958 2.81626 8.14394 2.50551 8.14394C2.29835 8.14394 2.05666 8.10958 1.84949 8.07522C2.29835 9.41536 3.54134 10.4119 5.02602 10.4119C3.85209 11.3053 2.40193 11.8551 0.813664 11.8551C0.537444 11.8551 0.261224 11.8551 0.0195312 11.8207C1.53874 12.7829 3.29965 13.3327 5.23319 13.3327C11.4827 13.3327 14.9009 8.17831 14.9009 3.71116C14.9009 3.57371 14.9009 3.4019 14.9009 3.26445C15.5569 2.81774 16.1439 2.23357 16.5927 1.54632Z" fill="#162351"/>
</svg>
