<svg width="20" height="19" viewBox="0 0 20 19" fill="none" xmlns="http://www.w3.org/2000/svg">
<path fill-rule="evenodd" clip-rule="evenodd" d="M10.3884 0C5.06225 0 0.777344 4.26444 0.777344 9.56511C0.777344 13.7897 3.54051 17.3766 7.34487 18.652C7.82542 18.7317 7.9856 18.4527 7.9856 18.1737C7.9856 17.9346 7.9856 17.3368 7.9856 16.5397C5.30253 17.1375 4.74188 15.2643 4.74188 15.2643C4.30138 14.1484 3.66065 13.8694 3.66065 13.8694C2.77964 13.2716 3.74074 13.2716 3.74074 13.2716C4.70184 13.3513 5.22243 14.268 5.22243 14.268C6.0634 15.7426 7.465 15.3042 8.02565 15.065C8.10574 14.4274 8.34601 14.0288 8.62633 13.7897C6.5039 13.5506 4.26133 12.7136 4.26133 9.047C4.26133 8.01078 4.62175 7.13398 5.26248 6.4963C5.18239 6.25717 4.82198 5.30066 5.34257 3.94561C5.34257 3.94561 6.14349 3.70648 7.9856 4.94197C8.74647 4.7427 9.58743 4.62313 10.3884 4.62313C11.1893 4.62313 12.0302 4.7427 12.7911 4.94197C14.6332 3.70648 15.4341 3.94561 15.4341 3.94561C15.9547 5.26081 15.6344 6.21732 15.5142 6.4963C16.1149 7.17383 16.5154 8.01078 16.5154 9.047C16.5154 12.7136 14.2728 13.5107 12.1103 13.7498C12.4707 14.0288 12.7511 14.6266 12.7511 15.5034C12.7511 16.7788 12.7511 17.815 12.7511 18.1338C12.7511 18.373 12.9112 18.6918 13.4318 18.6121C17.2362 17.3766 19.9994 13.7897 19.9994 9.56511C19.9994 4.26444 15.7145 0 10.3884 0Z" fill="#162351"/>
</svg>
