<svg width="21" height="20" viewBox="0 0 21 20" fill="none" xmlns="http://www.w3.org/2000/svg">
<path d="M10.1588 1.80182C12.8415 1.80182 13.1592 1.81182 14.219 1.85991C14.8562 1.86767 15.4873 1.98412 16.085 2.20418C16.5184 2.37053 16.912 2.62535 17.2404 2.95224C17.5689 3.27913 17.8249 3.67085 17.9921 4.10219C18.2132 4.69697 18.3302 5.32509 18.338 5.95924C18.3858 7.01395 18.3964 7.33013 18.3964 10C18.3964 12.6699 18.3863 12.986 18.338 14.0408C18.3302 14.6749 18.2132 15.303 17.9921 15.8978C17.8249 16.3291 17.5689 16.7209 17.2404 17.0478C16.912 17.3747 16.5184 17.6295 16.085 17.7958C15.4873 18.0159 14.8562 18.1323 14.219 18.1401C13.1597 18.1877 12.842 18.1982 10.1588 18.1982C7.47568 18.1982 7.15798 18.1882 6.09869 18.1401C5.4615 18.1323 4.83036 18.0159 4.23272 17.7958C3.79932 17.6295 3.40572 17.3747 3.07726 17.0478C2.7488 16.7209 2.49275 16.3291 2.32561 15.8978C2.10449 15.303 1.98748 14.6749 1.97969 14.0408C1.93184 12.986 1.92132 12.6699 1.92132 10C1.92132 7.33013 1.93136 7.01395 1.97969 5.95924C1.98748 5.32509 2.10449 4.69697 2.32561 4.10219C2.49275 3.67085 2.7488 3.27913 3.07726 2.95224C3.40572 2.62535 3.79932 2.37053 4.23272 2.20418C4.83036 1.98412 5.4615 1.86767 6.09869 1.85991C7.15846 1.81229 7.47615 1.80182 10.1588 1.80182ZM10.1588 0C7.43166 0 7.08813 0.011428 6.01639 0.0599971C5.18247 0.0765049 4.35741 0.233646 3.57628 0.524737C2.90621 0.775994 2.29929 1.16974 1.79787 1.67849C1.28622 2.17769 0.890247 2.78206 0.637626 3.44936C0.345139 4.22675 0.187243 5.04788 0.170656 5.87782C0.122811 6.94348 0.111328 7.28537 0.111328 9.99952C0.111328 12.7137 0.122811 13.0556 0.171613 14.1222C0.1882 14.9521 0.346096 15.7733 0.638583 16.5506C0.890923 17.2179 1.28656 17.8222 1.79787 18.3215C2.29957 18.8304 2.90682 19.2241 3.57724 19.4753C4.35836 19.7664 5.18343 19.9235 6.01735 19.94C7.08909 19.9876 7.43118 20 10.1598 20C12.8884 20 13.2305 19.9886 14.3022 19.94C15.1362 19.9235 15.9612 19.7664 16.7424 19.4753C17.4096 19.2179 18.0155 18.8247 18.5214 18.3209C19.0272 17.8172 19.4219 17.2139 19.6801 16.5497C19.9725 15.7723 20.1304 14.9512 20.147 14.1212C20.1949 13.0556 20.2064 12.7137 20.2064 9.99952C20.2064 7.28537 20.1949 6.94348 20.1461 5.87686C20.1295 5.04693 19.9716 4.2258 19.6791 3.44841C19.4268 2.78119 19.0311 2.17684 18.5198 1.67754C18.0181 1.16867 17.4109 0.774919 16.7404 0.523785C15.9593 0.232694 15.1342 0.0755526 14.3003 0.0590448C13.2296 0.0114281 12.886 0 10.1588 0Z" fill="#162351"/>
<path d="M10.1577 4.86523C9.13721 4.86523 8.13964 5.1664 7.29115 5.73064C6.44265 6.29488 5.78132 7.09685 5.3908 8.03515C5.00028 8.97345 4.8981 10.0059 5.09719 11.002C5.29628 11.9981 5.78768 12.9131 6.50927 13.6312C7.23086 14.3494 8.15022 14.8384 9.15109 15.0366C10.152 15.2347 11.1894 15.133 12.1322 14.7443C13.075 14.3557 13.8808 13.6975 14.4478 12.8531C15.0147 12.0086 15.3173 11.0158 15.3173 10.0002C15.3173 8.63834 14.7737 7.33224 13.8061 6.36924C12.8385 5.40624 11.5261 4.86523 10.1577 4.86523ZM10.1577 13.3334C9.49528 13.3334 8.84775 13.1379 8.29699 12.7717C7.74622 12.4054 7.31695 11.8848 7.06346 11.2758C6.80996 10.6667 6.74364 9.99653 6.87287 9.34996C7.0021 8.70339 7.32107 8.10947 7.78946 7.64332C8.25785 7.17717 8.85462 6.85971 9.50429 6.7311C10.154 6.60249 10.8274 6.6685 11.4394 6.92078C12.0513 7.17306 12.5744 7.60028 12.9424 8.14842C13.3104 8.69655 13.5069 9.34099 13.5069 10.0002C13.5069 10.8842 13.154 11.732 12.5259 12.3571C11.8978 12.9822 11.0459 13.3334 10.1577 13.3334Z" fill="#162351"/>
<path d="M15.5221 5.86082C16.188 5.86082 16.7278 5.32359 16.7278 4.66088C16.7278 3.99817 16.188 3.46094 15.5221 3.46094C14.8562 3.46094 14.3164 3.99817 14.3164 4.66088C14.3164 5.32359 14.8562 5.86082 15.5221 5.86082Z" fill="#162351"/>
</svg>
